<svg width="64" height="64" viewBox="0 0 64 64" xmlns="http://www.w3.org/2000/svg">
  <rect width="64" height="64" fill="transparent"/>
  <!-- Cat body (in air) -->
  <rect x="16" y="20" width="32" height="28" fill="#FF6B9D"/>
  <rect x="14" y="20" width="2" height="28" fill="#2D3748"/>
  <rect x="48" y="20" width="2" height="28" fill="#2D3748"/>
  <rect x="16" y="18" width="32" height="2" fill="#2D3748"/>
  <rect x="16" y="48" width="32" height="2" fill="#2D3748"/>

  <!-- Ears -->
  <rect x="20" y="12" width="8" height="8" fill="#FF6B9D"/>
  <rect x="36" y="12" width="8" height="8" fill="#FF6B9D"/>
  <rect x="18" y="12" width="2" height="8" fill="#2D3748"/>
  <rect x="28" y="12" width="2" height="2" fill="#2D3748"/>
  <rect x="34" y="12" width="2" height="2" fill="#2D3748"/>
  <rect x="44" y="12" width="2" height="8" fill="#2D3748"/>
  <rect x="20" y="10" width="8" height="2" fill="#2D3748"/>
  <rect x="36" y="10" width="8" height="2" fill="#2D3748"/>

  <!-- Eyes (excited) -->
  <rect x="24" y="28" width="4" height="4" fill="#2D3748"/>
  <rect x="36" y="28" width="4" height="4" fill="#2D3748"/>
  <rect x="26" y="28" width="2" height="2" fill="#4ECDC4"/>
  <rect x="38" y="28" width="2" height="2" fill="#4ECDC4"/>

  <!-- Nose -->
  <rect x="30" y="36" width="4" height="2" fill="#2D3748"/>

  <!-- Mouth (excited) -->
  <rect x="28" y="40" width="8" height="2" fill="#2D3748"/>

  <!-- Tail (up) -->
  <rect x="48" y="24" width="8" height="4" fill="#FF6B9D"/>
  <rect x="48" y="22" width="8" height="2" fill="#2D3748"/>
  <rect x="48" y="28" width="8" height="2" fill="#2D3748"/>
  <rect x="56" y="24" width="2" height="4" fill="#2D3748"/>

  <!-- Motion lines -->
  <rect x="12" y="52" width="4" height="2" fill="#4ECDC4"/>
  <rect x="48" y="52" width="4" height="2" fill="#4ECDC4"/>
</svg>
